<svg width="60" height="60" viewBox="0 0 60 60" fill="none" xmlns="http://www.w3.org/2000/svg">
<path d="M33.9747 52.6721L34.2383 53.5554L36.2611 51.5589L33.9747 52.6721Z" fill="#FEE18A"/>
<path d="M38.2089 50.6122L36.2625 51.559L34.2397 53.5554L34.5941 54.7518L38.7103 50.6906L38.2089 50.6122Z" fill="#F3F095"/>
<path d="M39.9832 50.8836L38.7098 50.6907L34.5885 54.7327L34.936 55.8734L39.9832 50.8836Z" fill="#55C1AE"/>
<path d="M41.2988 51.0891L39.9827 50.8835L34.9355 55.8731L35.287 57.0508L41.2988 51.0891Z" fill="#88AEDC"/>
<path d="M42.6154 51.2948L41.2993 51.0892L35.2874 57.0508L35.4812 57.7523L35.9946 57.9057L42.6154 51.2948Z" fill="#F7B3CE"/>
<path d="M42.9289 51.3439L42.6155 51.2949L35.9947 57.9058L37.1101 58.257L42.9669 52.4726L42.9289 51.3439Z" fill="#F58F8E"/>
<path d="M42.9961 53.9293L42.9622 52.3192L37.1097 58.2569L38.248 58.624L42.9961 53.9293Z" fill="#FEE18A"/>
<path d="M43.0316 55.4238L42.9961 53.9295L38.248 58.6242L39.3863 58.9912L43.0316 55.4238Z" fill="#F3F095"/>
<path d="M43.0783 56.609L43.0312 55.424L39.3859 58.9913L39.5799 59.0583L43.0783 56.609Z" fill="#55C1AE"/>
<g clip-path="url(#clip0)">
<path d="M39.7258 56.3438C39.7545 56.3868 39.7726 56.4314 39.78 56.4776C39.7931 56.5594 39.7704 56.6338 39.7118 56.7009C39.6568 56.7674 39.5866 56.8071 39.5012 56.8199C39.4442 56.8285 39.3886 56.8223 39.3342 56.8014C39.2792 56.7769 39.2324 56.7348 39.1937 56.6751L38.7589 56.0088L36.8793 56.2918L36.6732 57.0545C36.655 57.1228 36.6235 57.1766 36.5788 57.2161C36.5335 57.2521 36.4806 57.2746 36.4201 57.2837C36.3382 57.296 36.2589 57.2789 36.1822 57.2322C36.1054 57.1855 36.0605 57.1212 36.0474 57.0395C36.04 56.9933 36.0433 56.9454 36.0573 56.896L37.025 53.5122C37.0456 53.4363 37.0852 53.3757 37.1435 53.3305C37.2049 53.2813 37.273 53.251 37.3478 53.2397C37.4225 53.2285 37.4951 53.2376 37.5654 53.267C37.6387 53.2924 37.6971 53.3382 37.7405 53.4045L39.7258 56.3438ZM38.4386 55.511L37.4803 54.0334L37.0289 55.7232L38.4386 55.511ZM40.9165 56.6178C40.6441 56.6698 40.4919 56.5962 40.4601 56.3971C40.4464 56.3118 40.4593 56.2443 40.4988 56.1947C40.5341 56.1421 40.5992 56.105 40.6942 56.0834L40.8634 56.047C41.0082 56.0179 41.1112 55.9551 41.1723 55.8585C41.2334 55.762 41.25 55.6266 41.2221 55.4524L40.8406 53.0689C40.8241 52.9658 40.8413 52.8795 40.8921 52.81C40.946 52.7363 41.0245 52.6918 41.1277 52.6762C41.2345 52.6601 41.3233 52.6795 41.3941 52.7344C41.4678 52.7852 41.5129 52.8621 41.5294 52.9652L41.9109 55.3487C42.0185 56.0206 41.7434 56.4315 41.0856 56.5814L40.9165 56.6178Z" fill="#5E1286"/>
</g>
<path d="M15.0903 23.6058C11.2358 18.9688 9.57268 16.0622 9.1748 9.29419L17.7462 18.3886L15.0903 23.6058Z" fill="#824B2E"/>
<path d="M16.2975 11.0332L9.1748 9.29419C10.8878 12.8626 16.6899 19.2154 17.5652 18.6737C18.4404 18.132 23.5712 12.1166 23.5712 12.1166L16.2975 11.0332Z" fill="#0A0A0A"/>
<path d="M59.9394 25.459C59.8185 10.6387 58.2434 5.00311 52.5752 0.0288086C52.8503 11.5421 54.3559 19.8427 54.3559 19.8427C54.3559 19.8427 58.5888 24.3289 59.9394 25.459Z" fill="#824B2E"/>
<path d="M15.0599 23.7485L17.5347 18.6739L23.3597 12.0312L24.2953 11.5751L25.1404 11.0049C25.1404 11.0049 25.4723 10.5487 25.1404 10.5487C24.8084 10.5487 24.4462 10.6628 24.4462 10.6628L23.5408 10.8909L22.6353 11.1759C22.6353 11.1759 22.4844 11.233 22.4241 11.1759C22.3637 11.1189 22.4241 10.8909 22.4241 10.8909L22.5448 10.6913C22.5448 10.6913 22.8164 10.4632 22.9975 10.3777C23.1786 10.2922 26.0458 9.29434 26.7701 9.09477C27.4945 8.8952 28.3094 8.86669 29.2148 8.83819C30.1202 8.80969 31.1162 8.83819 31.1766 8.83819C31.2369 8.83819 31.2369 8.72415 31.2369 8.72415C31.2369 8.72415 31.2369 8.66713 31.1766 8.61011C31.1162 8.55309 28.5206 8.55309 28.4603 8.52459C28.3999 8.49609 28.1886 8.46756 28.1886 8.46756C28.1886 8.46756 27.8265 8.41055 27.7963 8.38204C27.7661 8.35354 27.7057 8.18249 27.7963 8.06844C27.8868 7.9544 28.0679 7.98292 28.1283 7.89739C28.1886 7.81185 28.6112 7.72633 28.6112 7.72633L34.7983 7.89739L37.0921 8.38204L39.8989 9.32285L42.6454 10.6628H43.4904L45.5729 9.63645L48.0176 7.6408L50.2208 4.30523C50.2208 4.30523 52.3033 0.0288504 52.5448 0.000341198C52.7862 -0.028168 53.7218 1.7394 53.7218 1.7394L54.8989 4.64734L55.6836 10.0071L55.925 14.312L56.1967 21.0971L59.9995 25.402V25.5731H59.8486L58.0679 23.9766L59.1846 28.0534L59.9995 32.1017L59.3959 32.7004L56.3476 34.6675V34.8101L57.3435 34.582L58.0679 34.4679H58.9733C59.3959 34.4679 58.9733 35.2092 58.9733 35.2092C58.9733 35.2092 47.2512 46.7809 44.245 48.5515C41.2387 50.322 36.3422 51.1835 31.2068 52.4287H29.6977C27.4963 52.216 26.2992 51.9585 24.2349 51.2313C20.3118 49.3491 18.0153 47.7859 13.7923 44.3321L11.5891 41.5667L10.0498 39.172C9.3798 37.975 9.2953 37.4899 9.32549 37.3474C9.35567 37.2048 9.89893 36.6061 10.5629 35.4373L11.5891 33.5842L15.0599 23.7485Z" fill="black"/>
<path d="M41.2882 37.718C48.8526 38.8893 52.1663 41.09 57.2842 46.4418C51.9023 41.2156 48.5471 38.9943 41.2278 37.8321L41.2882 37.718Z" fill="white"/>
<path d="M39.1944 39.5142C45.3369 40.6855 48.0278 42.8861 52.1836 48.238C47.8133 43.0118 45.0888 40.7904 39.1454 39.6282L39.1944 39.5142Z" fill="white"/>
<path d="M38.9354 42.5361C42.9736 43.3936 44.7425 45.0045 47.4746 48.9222C44.6016 45.0965 42.8105 43.4704 38.9032 42.6196L38.9354 42.5361Z" fill="white"/>
<path d="M46.1172 27.9392C46.1172 24.2615 41.1675 20.4872 37.5759 21.2681C33.7731 22.0948 31.561 27.2743 31.6604 29.9064C31.6506 32.8938 33.6524 34.2224 37.5759 34.3538C41.8314 34.4964 46.1172 31.6169 46.1172 27.9392Z" fill="#C9F180"/>
<path d="M38.5042 21.2104C33.9044 21.8346 33.4641 32.5257 37.202 32.3263C40.9399 32.1269 43.1041 20.5862 38.5042 21.2104Z" fill="black"/>
<ellipse cx="39.1227" cy="29.799" rx="0.422554" ry="0.399114" fill="white"/>
<path d="M20.9753 22.323C18.2891 22.323 16.2368 26.2573 16.7499 30.3341C17.1424 32.5691 18.5343 33.7527 20.9753 33.4131C25.3171 32.1749 24.8489 22.323 20.9753 22.323Z" fill="#C9F180"/>
<path d="M20.8247 22.323C17.5047 22.6652 16.7804 32.3012 19.4665 32.3012C22.1526 32.3012 24.1446 21.9809 20.8247 22.323Z" fill="black"/>
<ellipse cx="20.7946" cy="29.7924" rx="0.422523" ry="0.399127" fill="white"/>
<path d="M15.996 36.4351C8.43155 37.6064 5.11783 39.807 0 45.1588C5.3819 39.9326 8.73711 37.7113 16.0563 36.5491L15.996 36.4351Z" fill="white"/>
<path d="M18.0898 38.231C11.9473 39.4023 9.25642 41.6029 5.10059 46.9548C9.47085 41.7286 12.1954 39.5072 18.1388 38.345L18.0898 38.231Z" fill="white"/>
<path d="M18.3488 41.2532C14.3106 42.1106 12.5416 43.7215 9.80957 47.6392C12.6826 43.8135 14.4737 42.1874 18.381 41.3367L18.3488 41.2532Z" fill="white"/>
<path d="M25.549 43.357L25.9086 39.5233L25.4877 39.4881L25.1281 43.3218C24.1414 44.5653 22.9905 44.4738 19.9466 43.0026C19.8647 42.9655 19.8343 43.1444 19.9466 43.2397C20.0588 43.3349 20.9999 43.8167 22.0952 44.2359C23.1904 44.6551 23.9966 44.42 23.9966 44.42C23.9966 44.42 25.0775 43.8614 25.1784 43.7553C25.2792 43.6493 25.4295 43.6619 25.5091 43.783C25.5886 43.9041 26.3507 44.4969 26.6525 44.581C26.9543 44.6651 28.2271 44.8345 28.7048 44.7792C29.1826 44.7238 30.5057 44.4588 30.9205 44.2359C31.3352 44.013 31.4447 43.6914 30.9498 43.9235C30.4549 44.1557 26.5177 45.2124 25.549 43.357Z" fill="white"/>
<path d="M27.9783 36.4945C27.2544 36.4692 25.867 37.1909 25.5375 37.1223C25.208 37.0537 23.9234 35.9247 23.5447 36.3394C23.166 36.7541 23.7122 37.4579 23.7122 37.4579C24.913 39.1831 24.6977 38.9115 25.4425 39.544L25.9854 39.563C25.9854 39.563 28.1592 38.0414 28.4776 37.6246C28.7959 37.2078 28.7021 36.5199 27.9783 36.4945Z" fill="#FFCDCF"/>
<defs>
<clipPath id="clip0">
<rect width="6.05567" height="4.3235" fill="white" transform="matrix(0.998134 -0.0718856 0.0717753 0.996615 35.7168 53.0103)"/>
</clipPath>
</defs>
</svg>
