<svg width="512" height="512" viewBox="0 0 512 512" fill="none" xmlns="http://www.w3.org/2000/svg">
<path d="M357.29 436.747L304.173 489.644L300.106 474.725L341.386 433.608L356.773 436.618C356.948 436.651 357.12 436.694 357.29 436.747Z" fill="#9BE2EE"/>
<path d="M361.89 442.543L362.292 450.745L315.677 497.173L308.26 494.46C306.327 493.754 304.859 492.153 304.317 490.168L304.172 489.644L357.289 436.746C359.888 437.479 361.754 439.801 361.89 442.543Z" fill="#A9DB5C"/>
<path d="M362.291 450.744L363.182 468.839L329.61 502.271L315.677 497.173L362.291 450.744Z" fill="#F27FB8"/>
<path d="M341.386 433.608L300.106 474.724L296.034 459.797L325.077 430.869C325.857 430.729 326.658 430.729 327.447 430.883L341.386 433.608Z" fill="#F0CA52"/>
<path d="M363.182 468.839L363.778 480.973C363.878 483.04 362.964 485.028 361.328 486.296L339.94 502.89C338.219 504.226 335.933 504.582 333.892 503.836L329.61 502.271L363.182 468.839Z" fill="#A1E3DB"/>
<path d="M325.077 430.87L296.034 459.797L294.219 453.135C293.448 450.31 294.706 447.33 297.259 445.916L323.17 431.558C323.771 431.224 324.415 430.995 325.077 430.87Z" fill="#856CC2"/>
<path d="M355.168 447.992L356.644 478.023C356.722 479.637 356.009 481.19 354.732 482.182L338.018 495.151C336.673 496.193 334.887 496.471 333.291 495.885L313.264 488.562C311.756 488.009 310.606 486.762 310.184 485.208L302.291 456.27C301.692 454.066 302.672 451.737 304.667 450.63L324.912 439.412C325.93 438.849 327.115 438.662 328.255 438.886L351.171 443.365C353.407 443.805 355.055 445.713 355.168 447.992Z" fill="#DCD5EE"/>
<path d="M338.233 477.983C338.349 478.647 338.223 479.248 337.855 479.787C337.487 480.326 337.012 480.648 336.431 480.75C336.042 480.817 335.657 480.758 335.276 480.573C334.893 480.388 334.559 480.051 334.275 479.567L331.079 474.153L318.278 476.391L317.11 482.566C317.006 483.119 316.807 483.549 316.51 483.852C316.213 484.156 315.859 484.345 315.447 484.417C314.89 484.515 314.34 484.373 313.799 483.992C313.257 483.612 312.929 483.09 312.813 482.427C312.747 482.052 312.754 481.665 312.834 481.264L318.383 453.866C318.501 453.251 318.757 452.754 319.153 452.372C319.548 451.991 320 451.756 320.509 451.667C321.019 451.578 321.523 451.647 322.026 451.87C322.526 452.095 322.937 452.475 323.256 453.014L337.818 476.898C338.029 477.247 338.167 477.61 338.233 477.983ZM328.722 470.109L321.674 458.105L319.121 471.787L328.722 470.109Z" fill="#3D227E"/>
<path d="M349.413 449.269L352.796 468.599C355.203 480.055 338.212 481.427 336.795 471.123C336.859 470.063 338.414 469.828 339.077 470.551C340.607 472.91 347.595 475.735 347.228 469.572C347.228 469.572 345.74 454.936 343.845 450.242C341.95 445.549 348.85 444.219 349.413 449.269Z" fill="#3D227E"/>
<path d="M128.773 201.438C95.881 161.869 81.6893 137.066 78.2941 79.312L151.437 156.918L128.773 201.438Z" fill="#824B2E"/>
<path d="M139.075 94.152L78.2941 79.312C92.9113 109.762 142.423 163.973 149.892 159.351C157.36 154.728 201.143 103.397 201.143 103.397L139.075 94.152Z" fill="#0A0A0A"/>
<path d="M511.485 217.251C510.453 90.7841 497.013 42.6939 448.644 0.246582C450.992 98.4933 463.839 169.325 463.839 169.325C463.839 169.325 499.96 207.607 511.485 217.251Z" fill="#824B2E"/>
<path d="M128.515 202.654L149.634 159.35L199.34 102.666L207.324 98.7739L214.535 93.9084C214.535 93.9084 217.368 90.0159 214.535 90.0159C211.702 90.0159 208.612 90.989 208.612 90.989L200.885 92.9353L193.159 95.368C193.159 95.368 191.871 95.8545 191.356 95.368C190.841 94.8816 191.356 92.9353 191.356 92.9353L192.386 91.2323C192.386 91.2323 194.704 89.2861 196.249 88.5563C197.795 87.8264 222.262 79.3117 228.443 77.6087C234.624 75.9057 241.577 75.6624 249.304 75.4192C257.03 75.176 265.529 75.4192 266.044 75.4192C266.559 75.4192 266.559 74.446 266.559 74.446C266.559 74.446 266.559 73.9595 266.044 73.4729C265.529 72.9864 243.38 72.9864 242.865 72.7432C242.35 72.4999 240.547 72.2565 240.547 72.2565C240.547 72.2565 237.457 71.77 237.199 71.5268C236.942 71.2835 236.427 69.8239 237.199 68.8507C237.972 67.8775 239.517 68.1209 240.032 67.391C240.547 66.6611 244.153 65.9314 244.153 65.9314L296.95 67.391L316.523 71.5268L340.475 79.555L363.911 90.989H371.123L388.893 82.231L409.754 65.2015L428.555 36.7379C428.555 36.7379 446.326 0.24619 448.386 0.00291156C450.447 -0.240367 458.43 14.8429 458.43 14.8429L468.475 39.6573L475.171 85.3936L477.231 122.129L479.549 180.029L512 216.764V218.224H510.712L495.517 204.6L505.046 239.389L512 273.934L506.849 279.043L480.837 295.829V297.046L489.336 295.1L495.517 294.126H503.243C506.849 294.126 503.243 300.452 503.243 300.452C503.243 300.452 403.215 399.197 377.561 414.306C351.908 429.415 310.125 436.766 266.302 447.392H253.424C234.64 445.577 224.424 443.379 206.809 437.174C173.331 421.112 153.735 407.773 117.698 378.301L98.8973 354.703L85.7625 334.267C80.0449 324.053 79.3239 319.914 79.5814 318.698C79.839 317.481 84.4748 312.372 90.1408 302.398L98.8973 286.585L128.515 202.654Z" fill="black"/>
<path d="M352.322 321.86C416.872 331.856 445.149 350.634 488.821 396.304C442.895 351.707 414.264 332.751 351.807 322.833L352.322 321.86Z" fill="white"/>
<path d="M334.455 337.187C386.871 347.182 409.833 365.961 445.296 411.63C408.003 367.033 384.754 348.078 334.037 338.16L334.455 337.187Z" fill="white"/>
<path d="M332.251 362.975C366.71 370.291 381.805 384.038 405.119 417.469C380.602 384.823 365.318 370.947 331.976 363.687L332.251 362.975Z" fill="white"/>
<path d="M393.529 238.416C393.529 207.033 351.292 174.825 320.644 181.488C288.193 188.543 269.316 232.742 270.165 255.202C270.081 280.695 287.163 292.032 320.644 293.153C356.958 294.37 393.529 269.798 393.529 238.416Z" fill="#C9F180"/>
<path d="M328.565 180.994C289.313 186.32 285.556 277.552 317.453 275.85C349.35 274.148 367.817 175.667 328.565 180.994Z" fill="black"/>
<ellipse cx="333.846" cy="254.286" rx="3.60564" ry="3.4059" fill="white"/>
<path d="M178.994 190.49C156.072 190.49 138.559 224.062 142.938 258.851C146.287 277.923 158.164 288.023 178.994 285.125C216.044 274.56 212.049 190.49 178.994 190.49Z" fill="#C9F180"/>
<path d="M177.706 190.49C149.376 193.409 143.196 275.637 166.117 275.637C189.038 275.637 206.037 187.57 177.706 190.49Z" fill="black"/>
<ellipse cx="177.449" cy="254.229" rx="3.60563" ry="3.40589" fill="white"/>
<path d="M136.499 310.913C71.9491 320.908 43.6721 339.687 -7.62939e-05 385.356C45.9255 340.759 74.5566 321.803 137.014 311.886L136.499 310.913Z" fill="white"/>
<path d="M154.367 326.239C101.95 336.234 78.9885 355.013 43.5253 400.682C80.8182 356.085 104.068 337.13 154.785 327.212L154.367 326.239Z" fill="white"/>
<path d="M156.57 352.027C122.111 359.343 107.016 373.09 83.7025 406.521C108.219 373.875 123.503 359.999 156.845 352.739L156.57 352.027Z" fill="white"/>
<path opacity="0.07" d="M280.802 355.453C268.136 361.125 252.635 403.766 225.935 403.766C190.091 403.766 173.172 345.379 166.863 340.391C167.499 340.342 168.086 340.293 168.722 340.293C171.362 340.293 174.003 340.734 176.692 340.734C177.23 340.734 177.768 340.734 178.306 340.685C184.272 354.524 216.791 360.489 226.962 360.636C236.693 360.783 262.366 355.55 266.327 347.042C267.061 349.144 278.308 355.355 280.802 355.453Z" fill="#091427"/>
<path d="M261.682 376.431C251.999 389.928 239.285 402.544 224.615 402.544C222.561 402.544 219.823 401.81 216.595 400.392C217.084 394.329 217.28 387.629 219.774 382.103C231.901 375.404 255.227 371.101 261.682 376.431Z" fill="#C47499"/>
<path d="M220.85 382.641C218.356 388.167 217.133 394.329 216.644 400.392C213.661 399.072 210.287 397.116 206.766 394.524C210.727 389.487 215.519 385.575 220.85 382.641Z" fill="#AD6585"/>
<path d="M215.519 360.978C219.969 361.516 224.81 361.712 230.043 361.565C244.224 361.174 258.063 358.093 268.185 349.78C270.435 351.394 272.88 352.763 275.374 353.888C272.048 360.147 267.403 368.411 261.73 376.431C245.593 373.888 228.087 376.578 215.177 386.309C209.016 383.082 207.94 364.988 215.519 360.978Z" fill="#6B3F3C"/>
<path d="M215.519 360.978C211.216 368.607 211.412 378.191 215.177 386.309C212.096 388.656 209.309 391.346 206.815 394.475C193.954 385.037 178.991 367.287 173.123 341.125C180.556 348.753 193.514 358.387 215.519 360.978Z" fill="#8D5548"/>
<path d="M283.198 356.333C281.242 356.039 279.481 355.257 277.77 354.328C277.33 354.132 276.939 353.888 276.498 353.594C276.058 353.35 275.667 353.105 275.276 352.812C274.445 352.323 273.662 351.736 272.831 351.198C272.44 350.905 272.048 350.611 271.657 350.318L270.533 349.389C269.799 348.753 269.017 348.166 268.234 347.629L265.887 345.966L263.442 344.254L263.246 344.401C263.54 345.428 264.029 346.357 264.665 347.188C264.958 347.629 265.3 348.02 265.643 348.411C265.985 348.802 266.327 349.193 266.718 349.536C267.452 350.22 268.283 350.856 269.163 351.394L270.484 352.176C270.924 352.421 271.364 352.665 271.804 352.91C272.684 353.399 273.564 353.888 274.494 354.279C274.934 354.475 275.423 354.719 275.863 354.866C276.352 355.061 276.792 355.257 277.281 355.404C277.77 355.55 278.21 355.746 278.748 355.893C279.237 356.039 279.726 356.186 280.215 356.284C281.193 356.528 282.22 356.626 283.247 356.577V356.333H283.198Z" fill="#8D5548"/>
<path d="M180.653 339.902C178.991 340.049 177.377 340.245 175.763 340.342C174.932 340.391 174.15 340.44 173.367 340.391C172.634 340.342 171.802 340.245 171.02 340.147C169.455 339.951 167.939 339.315 166.374 339.12C164.81 338.875 163.245 338.729 161.533 338.631L161.435 338.826C162.022 339.511 162.756 340.049 163.489 340.489C164.223 340.929 165.054 341.271 165.836 341.516C167.45 342.054 169.211 341.956 170.873 342.005C171.705 342.005 172.536 342.005 173.416 341.907C174.296 341.809 175.079 341.663 175.91 341.467C177.524 341.076 179.089 340.636 180.702 340.147L180.653 339.902Z" fill="#8D5548"/>
<path d="M238.749 311.419C232.572 311.203 220.733 317.362 217.921 316.777C215.109 316.191 204.147 306.557 200.916 310.095C197.685 313.634 202.346 319.64 202.346 319.64C212.593 334.362 210.755 332.044 217.111 337.441L221.744 337.603C221.744 337.603 240.293 324.619 243.01 321.063C245.727 317.506 244.926 311.635 238.749 311.419Z" fill="#FFCDCF"/>
</svg>
